<svg version="1.1" id="Layer_1" xmlns="http://www.w3.org/2000/svg" xmlns:xlink="http://www.w3.org/1999/xlink" x="0px" y="0px"
	 width="100%" viewBox="0 0 1024 1024" enable-background="new 0 0 1024 1024" xml:space="preserve">
<path fill="#000000" opacity="1.000000" stroke="none" 
	d="
M198.667480,594.999878 
	C198.666946,464.513916 198.666718,334.527924 198.667175,204.541962 
	C198.667206,192.501740 203.252213,187.221832 214.980148,185.388321 
	C218.629868,184.817719 222.264450,184.657455 225.930862,184.657471 
	C350.584076,184.658020 475.237305,184.696228 599.890442,184.573395 
	C608.301270,184.565094 614.883789,187.191483 620.681458,193.323044 
	C651.129089,225.523865 681.787415,257.525391 712.328613,289.637909 
	C727.598328,305.693207 742.721558,321.888092 758.038879,337.897522 
	C760.985779,340.977631 762.382141,344.137238 762.425903,348.505310 
	C763.171326,422.822784 763.310242,497.142090 763.254456,571.462036 
	C763.252136,574.560913 763.955261,576.582214 766.788391,578.404663 
	C800.995789,600.408691 821.742676,631.797241 829.186951,671.493469 
	C836.988647,713.095642 828.073120,751.255005 800.005798,783.331787 
	C777.806274,808.702576 749.685486,825.191650 715.858154,830.337463 
	C697.843506,833.077942 679.622742,831.405701 661.503296,831.306519 
	C516.686829,830.514221 371.869751,831.173340 227.053284,830.962097 
	C223.387131,830.956787 219.716202,831.046265 216.055786,830.893311 
	C205.837708,830.466370 199.478775,824.233398 198.723282,813.972595 
	C198.588974,812.148560 198.668396,810.307922 198.668350,808.474976 
	C198.666824,737.483276 198.667526,666.491638 198.667480,594.999878 
M348.499908,811.648193 
	C440.093201,811.648193 531.686523,811.648193 624.499939,811.648193 
	C619.743164,807.904602 615.867615,805.113098 612.297546,801.974060 
	C608.548706,798.677856 605.084045,795.057678 601.510254,791.563721 
	C568.772339,759.556519 557.827820,719.741333 562.924927,675.671387 
	C566.835815,641.858032 583.398682,613.739685 609.958923,592.020142 
	C641.870911,565.924316 678.724731,557.872925 719.030884,562.431702 
	C727.115540,563.346130 734.839600,565.782715 742.598938,567.474915 
	C744.300171,565.393494 743.648315,563.309143 743.650513,561.396667 
	C743.727173,495.900177 743.759827,430.403625 743.795654,364.907074 
	C743.799255,358.331024 743.790222,358.322906 737.155884,358.323364 
	C697.824585,358.326050 658.493347,358.349884 619.162048,358.326477 
	C609.144104,358.320526 601.417786,353.127258 598.434204,344.122742 
	C597.019897,339.854279 597.030518,335.272156 597.014465,330.788055 
	C596.872009,291.124573 596.772644,251.460892 596.663574,211.797287 
	C596.642700,204.219467 596.648926,204.211807 589.051636,204.214798 
	C468.224823,204.262253 347.398010,204.311798 226.571213,204.361237 
	C225.571274,204.361649 224.563965,204.447006 223.572754,204.355515 
	C220.376328,204.060486 219.064362,205.412460 219.120499,208.669601 
	C219.261169,216.833282 219.209229,225.000488 219.211273,233.166290 
	C219.259048,423.989716 219.321686,614.813110 219.248581,805.636475 
	C219.246704,810.561218 220.796173,811.757507 225.506561,811.738525 
	C266.170471,811.574768 306.835327,811.646362 348.499908,811.648193 
M632.443970,598.991638 
	C596.435425,625.396729 577.222900,659.921204 581.367737,705.511230 
	C583.076538,724.306702 588.388000,741.915100 599.107666,757.820374 
	C626.573303,798.572083 664.395813,817.777161 713.414490,811.330627 
	C742.474609,807.508850 766.609009,793.409729 785.514038,770.454163 
	C812.566467,737.605347 817.786560,700.224060 807.334534,660.521301 
	C800.580078,634.864014 783.021484,615.482361 762.504700,599.483154 
	C745.271423,586.044434 724.151978,582.161011 702.958740,580.512817 
	C677.777710,578.554565 654.607117,585.801147 632.443970,598.991638 
M640.499939,339.654480 
	C670.525696,339.654480 700.551453,339.654480 730.577209,339.654480 
	C730.734619,339.221222 730.892090,338.787964 731.049500,338.354706 
	C692.891479,297.923340 654.733459,257.492004 616.154358,216.614471 
	C616.154358,219.778168 616.155396,222.103989 616.154175,224.429810 
	C616.135071,260.727234 616.209717,297.025208 615.988953,333.321411 
	C615.957825,338.425201 617.484741,340.107574 622.523254,339.749298 
	C628.155945,339.348816 633.838867,339.655365 640.499939,339.654480 
z"/>
<path fill="#000000" opacity="1.000000" stroke="none" 
	d="
M432.341034,319.062378 
	C432.643036,323.260101 431.090454,325.869476 427.602264,327.423309 
	C420.466766,330.601837 416.532288,325.368835 411.572266,320.943817 
	C411.468506,323.281464 411.325256,325.021240 411.324280,326.761047 
	C411.314209,344.588898 411.346619,362.416748 411.325989,380.244568 
	C411.314911,389.811157 407.298187,394.063812 397.684479,394.089752 
	C364.195068,394.180115 330.705200,394.159485 297.215729,394.079559 
	C289.483093,394.061096 286.715302,391.104004 286.705505,383.402161 
	C286.681152,364.241425 286.717896,345.080627 286.680573,325.919952 
	C286.677155,324.164001 287.169891,322.313263 286.060028,320.362152 
	C283.789795,322.180756 281.662872,323.975830 279.441132,325.644684 
	C275.240387,328.800110 269.314178,328.614990 266.203918,325.309265 
	C262.895660,321.793152 263.019775,315.724945 267.125305,311.794586 
	C272.531769,306.618805 278.334656,301.852661 284.029144,296.982971 
	C302.380402,281.289673 320.781555,265.654663 339.119110,249.945389 
	C347.204102,243.019211 349.934723,242.810623 357.972015,249.720123 
	C381.582642,270.017700 405.115082,290.406311 428.653229,310.788055 
	C431.000061,312.820160 432.526886,315.352692 432.341034,319.062378 
M324.501129,374.649139 
	C344.971069,374.648254 365.442719,374.505981 385.909668,374.752686 
	C390.623566,374.809479 391.802795,373.283661 391.754303,368.777771 
	C391.541168,348.975830 391.596222,329.169800 391.734009,309.366486 
	C391.757141,306.038757 390.646820,303.833191 388.162201,301.691101 
	C375.943329,291.156738 363.777374,280.555908 351.817963,269.729767 
	C349.127411,267.294159 347.529236,267.731842 345.157349,269.813873 
	C333.163513,280.342194 321.089630,290.779633 309.000702,301.198944 
	C307.244873,302.712280 306.290405,304.356049 306.297699,306.757965 
	C306.362335,328.059814 306.385071,349.362030 306.314972,370.663788 
	C306.304779,373.767853 307.612946,374.756836 310.522308,374.670990 
	C314.845398,374.543427 319.175232,374.644714 324.501129,374.649139 
z"/>
<path fill="#000000" opacity="1.000000" stroke="none" 
	d="
M687.978516,442.344391 
	C692.705017,444.723785 695.185242,448.298431 693.952637,453.047333 
	C692.805054,457.468872 689.747742,459.963074 684.585754,460.550049 
	C677.760132,461.326172 670.976196,461.275940 664.171265,461.277191 
	C541.409668,461.300110 418.648041,461.287720 295.886414,461.281616 
	C294.553955,461.281555 293.216675,461.335052 291.889832,461.244049 
	C285.968903,460.837921 283.624634,457.958649 283.652191,451.199249 
	C283.677887,444.894073 286.141083,442.024963 291.894958,441.678711 
	C293.388947,441.588806 294.892395,441.650879 296.391479,441.650909 
	C424.649872,441.653046 552.908264,441.653534 681.166687,441.679504 
	C683.311462,441.679932 685.456177,441.991028 687.978516,442.344391 
z"/>
<path fill="#000000" opacity="1.000000" stroke="none" 
	d="
M550.000000,515.714844 
	C575.663147,515.713318 600.826233,515.712219 625.989380,515.711426 
	C626.822571,515.711365 627.657471,515.680603 628.488586,515.722839 
	C634.743408,516.040833 639.174133,519.995239 639.284058,525.340271 
	C639.389038,530.445984 634.769226,534.889526 628.589294,534.949951 
	C611.760010,535.114685 594.928223,535.045837 578.097473,535.044006 
	C484.110779,535.033447 390.124115,535.015503 296.137421,534.997986 
	C294.637878,534.997742 293.132019,535.054688 291.639923,534.941711 
	C286.311340,534.538330 283.892670,532.186340 283.660217,527.280884 
	C283.313538,519.964966 285.372284,516.680969 291.045380,515.862915 
	C293.008423,515.579895 295.036774,515.717712 297.035309,515.717590 
	C381.190216,515.712952 465.345093,515.714478 550.000000,515.714844 
z"/>
<path fill="#000000" opacity="1.000000" stroke="none" 
	d="
M377.999878,606.376953 
	C349.675018,606.374756 321.850159,606.385620 294.025299,606.361084 
	C284.960907,606.353088 280.645721,599.935669 284.104889,591.610901 
	C284.981506,589.501282 286.608917,588.048218 288.966644,587.771484 
	C290.448608,587.597534 291.960632,587.650757 293.459167,587.650696 
	C373.101593,587.646973 452.743988,587.646912 532.386414,587.651367 
	C541.096375,587.651855 546.222595,591.262268 546.064819,597.245728 
	C545.911987,603.041443 540.969482,606.362488 532.453003,606.363586 
	C481.135315,606.370483 429.817596,606.372559 377.999878,606.376953 
z"/>
<path fill="#000000" opacity="1.000000" stroke="none" 
	d="
M445.000122,660.607422 
	C464.664215,660.604126 483.828400,660.630249 502.992310,660.570740 
	C506.467773,660.559937 509.558319,661.061768 511.968292,663.920410 
	C515.918945,668.606567 514.758179,675.001160 509.349365,677.868164 
	C506.582367,679.334900 503.612000,679.345703 500.595337,679.344849 
	C432.271149,679.325867 363.946930,679.328308 295.622742,679.324829 
	C294.289703,679.324768 292.951843,679.372070 291.624451,679.279358 
	C285.654236,678.862671 283.463348,675.891052 283.654480,668.543457 
	C283.806915,662.683838 285.857086,660.646606 292.020508,660.642517 
	C342.847046,660.608887 393.673553,660.614136 445.000122,660.607422 
z"/>
<path fill="#000000" opacity="1.000000" stroke="none" 
	d="
M659.460815,700.544067 
	C666.560974,708.250854 673.424500,715.696899 680.705566,723.596008 
	C685.445251,717.466919 689.911865,711.725586 694.341736,705.956055 
	C709.753540,685.883850 725.108704,665.767761 740.606689,645.762268 
	C742.789856,642.944031 744.716614,639.405334 748.740051,638.795044 
	C752.666809,638.199524 756.494751,638.552124 758.812561,642.515259 
	C761.052368,646.344788 760.972351,650.140869 758.256348,653.716675 
	C751.407715,662.733521 744.516846,671.718384 737.642944,680.716003 
	C722.276367,700.830200 706.904358,720.940308 691.545349,741.060303 
	C684.234863,750.636963 679.265320,750.837158 671.144714,742.031494 
	C659.175293,729.052429 647.126831,716.146301 635.112183,703.208984 
	C634.432007,702.476501 633.691895,701.790344 633.083008,701.002686 
	C629.677307,696.597534 629.918274,691.065613 633.640747,687.377563 
	C637.328247,683.724182 642.889465,683.655823 647.113159,687.665955 
	C651.336365,691.675659 655.201904,696.062073 659.460815,700.544067 
z"/>
<path fill="#000000" opacity="1.000000" stroke="none" 
	d="
M365.429443,320.719666 
	C371.780914,323.203888 374.734039,327.618774 373.703766,332.465302 
	C372.586517,337.721039 368.772858,340.320282 362.069092,340.332916 
	C353.070587,340.349854 344.050018,339.953888 335.081696,340.473602 
	C329.628387,340.789642 324.154633,335.484711 323.898315,330.486755 
	C323.636566,325.382477 329.005066,320.697083 334.994354,320.675110 
	C344.992462,320.638397 354.990814,320.678284 365.429443,320.719666 
z"/>
</svg>